<?xml version="1.0" encoding="iso-8859-1"?>
<!-- Uploaded to: SVG Repo, www.svgrepo.com, Generator: SVG Repo Mixer Tools -->
<svg height="800px" width="800px" version="1.1" id="Layer_1" xmlns="http://www.w3.org/2000/svg" xmlns:xlink="http://www.w3.org/1999/xlink" 
	 viewBox="0 0 392.691 392.691" xml:space="preserve">
<circle style="fill:#FFFFFF;" cx="144.846" cy="144.808" r="123.087"/>
<path style="fill:#56ACE0;" d="M297.089,273.778l-23.273,23.273l68.913,68.913c6.206,6.206,17.067,6.206,23.273,0
	c6.4-6.4,6.4-16.873,0-23.273L297.089,273.778z"/>
<path style="fill:#194F82;" d="M381.388,327.24l-76.606-76.606c-4.267-4.267-11.119-4.267-15.451,0l-11.636,11.636l-23.208-23.208
	c21.786-25.341,35.103-58.246,35.103-94.255C289.59,64.905,224.685,0,144.846,0S0.103,64.97,0.103,144.808
	s64.905,144.743,144.743,144.743c36.008,0,68.913-13.188,94.255-35.103l23.208,23.208l-11.636,11.636
	c-2.004,2.004-3.168,4.784-3.168,7.758s1.164,5.624,3.168,7.758l76.606,76.606c15.58,15.58,39.628,14.481,54.109,0
	C396.321,366.416,396.321,342.174,381.388,327.24z M144.846,267.895c-68.008,0-123.087-55.079-123.087-123.087
	S76.838,21.721,144.846,21.721S267.933,76.8,267.933,144.808S212.854,267.895,144.846,267.895z M365.937,365.964
	c-6.206,6.206-17.067,6.206-23.273,0l-68.913-68.978l23.273-23.273l68.913,68.913C372.337,349.026,372.337,359.564,365.937,365.964z
	"/>
<path style="fill:#FFC10D;" d="M144.846,43.636c-55.79,0-101.172,45.382-101.172,101.172c0,20.881,6.335,40.275,17.261,56.436
	h77.576c6.012,0,10.925,4.848,10.925,10.925c0,6.012-4.848,10.925-10.925,10.925H80.782c17.455,14.287,39.693,22.949,64.065,22.949
	c55.79,0,101.172-45.382,101.172-101.172C246.018,89.083,200.636,43.636,144.846,43.636z"/>
<path style="fill:#194F82;" d="M222.293,84.622c-3.814-4.655-10.667-5.301-15.386-1.552c-4.655,3.814-5.301,10.667-1.552,15.386
	c11.442,13.899,17.778,31.612,17.778,49.584c0,6.012,4.848,10.925,10.925,10.925c6.012,0,10.925-4.848,10.925-10.925
	C244.984,125.026,236.968,102.465,222.293,84.622z"/>
<circle style="fill:#FFFFFF;" cx="144.717" cy="144.614" r="11.442"/>
<path style="fill:#194F82;" d="M199.796,44.412c-5.236-2.909-11.895-1.034-14.804,4.331l-3.426,6.206
	c-11.636-4.59-24.178-7.046-36.784-7.046c-55.273,0-100.137,44.865-100.137,100.137c0,6.012,4.848,10.925,10.925,10.925
	s10.925-4.848,10.925-10.925c0-43.184,35.168-78.352,78.352-78.352c9.05,0,17.778,1.552,26.117,4.59l-20.687,37.818
	c-1.745-0.323-3.62-0.453-5.495-0.453c-18.295,0-33.164,14.804-33.164,33.164c0,18.295,14.804,33.164,33.164,33.164
	s33.164-14.869,33.164-33.164c0-8.469-3.232-16.291-8.469-22.174l34.78-63.289C206.972,53.98,205.032,47.321,199.796,44.412z
	 M133.339,144.614c0-6.335,5.107-11.442,11.442-11.442s11.442,5.107,11.442,11.442c0,6.335-5.107,11.442-11.442,11.442
	C138.446,156.057,133.339,150.949,133.339,144.614z"/>
</svg>